<svg viewBox="0 0 360 200" xmlns="http://www.w3.org/2000/svg" role="img"><defs><marker id="ah" viewBox="0 0 10 10" refX="8" refY="5" markerWidth="6" markerHeight="6" orient="auto-start-reverse"><path d="M0,0 L10,5 L0,10 z" fill="#fb923c"/></marker></defs><line x1="10" y1="176" x2="350" y2="176" stroke="#334155" stroke-width="2"/><line x1="95.0" y1="150.0" x2="116.0" y2="186.4" stroke="#64748b" stroke-width="11" stroke-linecap="round" opacity="0.85"/><line x1="116.0" y1="186.4" x2="150.6" y2="166.4" stroke="#64748b" stroke-width="10" stroke-linecap="round" opacity="0.85"/><line x1="150.6" y1="166.4" x2="168.6" y2="167.9" stroke="#64748b" stroke-width="8" stroke-linecap="round" opacity="0.85"/><line x1="47.7" y1="141.7" x2="20.0" y2="125.7" stroke="#64748b" stroke-width="9" stroke-linecap="round" opacity="0.85"/><line x1="20.0" y1="125.7" x2="5.0" y2="99.7" stroke="#64748b" stroke-width="8" stroke-linecap="round" opacity="0.85"/><line x1="95.0" y1="150.0" x2="116.0" y2="186.4" stroke="#cbd5e1" stroke-width="12" stroke-linecap="round" opacity="1.0"/><line x1="116.0" y1="186.4" x2="150.6" y2="166.4" stroke="#cbd5e1" stroke-width="11" stroke-linecap="round" opacity="1.0"/><line x1="150.6" y1="166.4" x2="168.6" y2="167.9" stroke="#cbd5e1" stroke-width="8" stroke-linecap="round" opacity="1.0"/><line x1="95.0" y1="150.0" x2="35.9" y2="139.6" stroke="#f97316" stroke-width="15" stroke-linecap="round" opacity="1.0"/><circle cx="17.2" cy="136.3" r="12" fill="#e2e8f0" opacity="1.0"/><line x1="47.7" y1="141.7" x2="20.0" y2="125.7" stroke="#cbd5e1" stroke-width="10" stroke-linecap="round" opacity="1.0"/><line x1="20.0" y1="125.7" x2="5.0" y2="99.7" stroke="#cbd5e1" stroke-width="9" stroke-linecap="round" opacity="1.0"/><line x1="265.0" y1="150.0" x2="286.0" y2="186.4" stroke="#64748b" stroke-width="11" stroke-linecap="round" opacity="0.85"/><line x1="286.0" y1="186.4" x2="320.6" y2="166.4" stroke="#64748b" stroke-width="10" stroke-linecap="round" opacity="0.85"/><line x1="320.6" y1="166.4" x2="338.6" y2="167.9" stroke="#64748b" stroke-width="8" stroke-linecap="round" opacity="0.85"/><line x1="219.9" y1="166.4" x2="192.2" y2="150.4" stroke="#64748b" stroke-width="9" stroke-linecap="round" opacity="0.85"/><line x1="192.2" y1="150.4" x2="177.2" y2="124.4" stroke="#64748b" stroke-width="8" stroke-linecap="round" opacity="0.85"/><line x1="265.0" y1="150.0" x2="286.0" y2="186.4" stroke="#cbd5e1" stroke-width="12" stroke-linecap="round" opacity="1.0"/><line x1="286.0" y1="186.4" x2="320.6" y2="166.4" stroke="#cbd5e1" stroke-width="11" stroke-linecap="round" opacity="1.0"/><line x1="320.6" y1="166.4" x2="338.6" y2="167.9" stroke="#cbd5e1" stroke-width="8" stroke-linecap="round" opacity="1.0"/><line x1="265.0" y1="150.0" x2="208.6" y2="170.5" stroke="#f97316" stroke-width="15" stroke-linecap="round" opacity="1.0"/><circle cx="190.8" cy="177.0" r="12" fill="#e2e8f0" opacity="1.0"/><line x1="219.9" y1="166.4" x2="192.2" y2="150.4" stroke="#cbd5e1" stroke-width="10" stroke-linecap="round" opacity="1.0"/><line x1="192.2" y1="150.4" x2="177.2" y2="124.4" stroke="#cbd5e1" stroke-width="9" stroke-linecap="round" opacity="1.0"/><path d="M17.2,136.3 Q104.0,138.7 190.8,177.0" fill="none" stroke="#fb923c" stroke-width="3" marker-end="url(#ah)" opacity="0.95"/><text x="95" y="192" fill="#94a3b8" font-family="Arial" font-size="12" text-anchor="middle">Deitado</text><text x="265" y="192" fill="#94a3b8" font-family="Arial" font-size="12" text-anchor="middle">Sobe ombros</text></svg>