<svg viewBox="0 0 380 212" xmlns="http://www.w3.org/2000/svg" role="img" aria-label="cadeira-extensora"><title>cadeira-extensora</title><defs><marker id="ah" viewBox="0 0 10 10" refX="8" refY="5" markerWidth="6" markerHeight="6" orient="auto-start-reverse"><path d="M0,0 L10,5 L0,10 z" fill="#fb923c"/></marker></defs><line x1="8.0" y1="178.0" x2="372.0" y2="178.0" stroke="#334155" stroke-width="2" stroke-linecap="butt"/><rect x="51.5" y="133.8" width="48.0" height="8.0" rx="3" fill="#475569"/><rect x="71.5" y="141.8" width="8.0" height="36.2" rx="2" fill="#475569"/><rect x="49.5" y="79.8" width="8.0" height="98.2" rx="3" fill="#475569"/><rect x="219.5" y="158.1" width="48.0" height="8.0" rx="3" fill="#475569"/><rect x="239.5" y="166.1" width="8.0" height="11.9" rx="2" fill="#475569"/><rect x="217.5" y="104.1" width="8.0" height="73.9" rx="3" fill="#475569"/><line x1="75.5" y1="125.8" x2="118.8" y2="133.4" stroke="#64748b" stroke-width="10.120000000000001" stroke-linecap="round"/><line x1="118.8" y1="133.4" x2="111.5" y2="174.8" stroke="#64748b" stroke-width="8.74" stroke-linecap="round"/><line x1="105.6" y1="175.0" x2="128.5" y2="174.2" stroke="#64748b" stroke-width="6.44" stroke-linecap="round"/><line x1="81.0" y1="73.9" x2="64.2" y2="98.7" stroke="#64748b" stroke-width="8.74" stroke-linecap="round"/><line x1="64.2" y1="98.7" x2="71.6" y2="124.7" stroke="#64748b" stroke-width="7.36" stroke-linecap="round"/><line x1="75.5" y1="125.8" x2="81.6" y2="68.1" stroke="#cbd5e1" stroke-width="15.0" stroke-linecap="round"/><line x1="81.6" y1="68.1" x2="83.0" y2="54.9" stroke="#cbd5e1" stroke-width="8.0" stroke-linecap="round"/><circle cx="83.0" cy="54.9" r="11.5" fill="#e2e8f0"/><line x1="75.5" y1="125.8" x2="119.3" y2="130.4" stroke="#cbd5e1" stroke-width="11.0" stroke-linecap="round"/><line x1="119.3" y1="130.4" x2="114.9" y2="172.2" stroke="#cbd5e1" stroke-width="9.5" stroke-linecap="round"/><line x1="108.9" y1="172.6" x2="131.8" y2="171.0" stroke="#cbd5e1" stroke-width="7.0" stroke-linecap="round"/><line x1="81.0" y1="73.9" x2="66.0" y2="99.9" stroke="#cbd5e1" stroke-width="9.5" stroke-linecap="round"/><line x1="66.0" y1="99.9" x2="75.2" y2="125.2" stroke="#cbd5e1" stroke-width="8.0" stroke-linecap="round"/><line x1="243.5" y1="150.1" x2="286.8" y2="157.7" stroke="#64748b" stroke-width="10.120000000000001" stroke-linecap="round"/><line x1="286.8" y1="157.7" x2="327.2" y2="169.3" stroke="#64748b" stroke-width="8.74" stroke-linecap="round"/><line x1="325.5" y1="175.0" x2="331.9" y2="152.9" stroke="#64748b" stroke-width="6.44" stroke-linecap="round"/><line x1="248.9" y1="98.1" x2="232.1" y2="123.0" stroke="#64748b" stroke-width="8.74" stroke-linecap="round"/><line x1="232.1" y1="123.0" x2="239.6" y2="149.0" stroke="#64748b" stroke-width="7.36" stroke-linecap="round"/><line x1="243.5" y1="150.1" x2="249.5" y2="92.4" stroke="#cbd5e1" stroke-width="15.0" stroke-linecap="round"/><line x1="249.5" y1="92.4" x2="250.9" y2="79.1" stroke="#cbd5e1" stroke-width="8.0" stroke-linecap="round"/><circle cx="250.9" cy="79.1" r="11.5" fill="#e2e8f0"/><line x1="243.5" y1="150.1" x2="287.2" y2="154.7" stroke="#cbd5e1" stroke-width="11.0" stroke-linecap="round"/><line x1="287.2" y1="154.7" x2="328.3" y2="163.4" stroke="#cbd5e1" stroke-width="9.5" stroke-linecap="round"/><line x1="327.1" y1="169.2" x2="331.8" y2="146.8" stroke="#cbd5e1" stroke-width="7.0" stroke-linecap="round"/><line x1="248.9" y1="98.1" x2="233.9" y2="124.1" stroke="#cbd5e1" stroke-width="9.5" stroke-linecap="round"/><line x1="233.9" y1="124.1" x2="243.2" y2="149.5" stroke="#cbd5e1" stroke-width="8.0" stroke-linecap="round"/><circle cx="118.9" cy="172.2" r="7.0" fill="#e5e7eb"/><circle cx="332.3" cy="163.4" r="7.0" fill="#e5e7eb"/><path d="M130.9,170.0 Q222.7,196.7 312.3,163.4" fill="none" stroke="#fb923c" stroke-width="3" marker-end="url(#ah)" opacity="0.95"/><text x="98.0" y="204.0" fill="#94a3b8" font-family="-apple-system,Helvetica,Arial,sans-serif" font-size="11" font-weight="400" text-anchor="middle">Joelhos dobrados</text><text x="282.0" y="204.0" fill="#94a3b8" font-family="-apple-system,Helvetica,Arial,sans-serif" font-size="11" font-weight="400" text-anchor="middle">Pernas estendidas</text></svg>