<svg viewBox="0 0 360 200" xmlns="http://www.w3.org/2000/svg" role="img"><defs><marker id="ah" viewBox="0 0 10 10" refX="8" refY="5" markerWidth="6" markerHeight="6" orient="auto-start-reverse"><path d="M0,0 L10,5 L0,10 z" fill="#fb923c"/></marker></defs><line x1="10" y1="180" x2="350" y2="180" stroke="#334155" stroke-width="2"/><line x1="95.0" y1="95.0" x2="93.5" y2="137.0" stroke="#64748b" stroke-width="11" stroke-linecap="round" opacity="0.85"/><line x1="93.5" y1="137.0" x2="93.5" y2="177.0" stroke="#64748b" stroke-width="10" stroke-linecap="round" opacity="0.85"/><line x1="93.5" y1="177.0" x2="111.5" y2="178.5" stroke="#64748b" stroke-width="8" stroke-linecap="round" opacity="0.85"/><line x1="95.0" y1="47.0" x2="115.6" y2="71.5" stroke="#64748b" stroke-width="9" stroke-linecap="round" opacity="0.85"/><line x1="115.6" y1="71.5" x2="125.8" y2="43.3" stroke="#64748b" stroke-width="8" stroke-linecap="round" opacity="0.85"/><line x1="95.0" y1="95.0" x2="93.5" y2="137.0" stroke="#cbd5e1" stroke-width="12" stroke-linecap="round" opacity="1.0"/><line x1="93.5" y1="137.0" x2="93.5" y2="177.0" stroke="#cbd5e1" stroke-width="11" stroke-linecap="round" opacity="1.0"/><line x1="93.5" y1="177.0" x2="111.5" y2="178.5" stroke="#cbd5e1" stroke-width="8" stroke-linecap="round" opacity="1.0"/><line x1="95.0" y1="95.0" x2="95.0" y2="35.0" stroke="#cbd5e1" stroke-width="15" stroke-linecap="round" opacity="1.0"/><circle cx="95.0" cy="16.0" r="12" fill="#e2e8f0" opacity="1.0"/><line x1="95.0" y1="47.0" x2="115.6" y2="71.5" stroke="#f97316" stroke-width="10" stroke-linecap="round" opacity="1.0"/><line x1="115.6" y1="71.5" x2="125.8" y2="43.3" stroke="#f97316" stroke-width="9" stroke-linecap="round" opacity="1.0"/><line x1="136.8" y1="43.3" x2="114.8" y2="43.3" stroke="#f8fafc" stroke-width="5" stroke-linecap="round" opacity="1.0"/><rect x="131.8" y="36.3" width="10" height="14" rx="3" fill="#f8fafc"/><rect x="109.8" y="36.3" width="10" height="14" rx="3" fill="#f8fafc"/><line x1="265.0" y1="95.0" x2="263.5" y2="137.0" stroke="#64748b" stroke-width="11" stroke-linecap="round" opacity="0.85"/><line x1="263.5" y1="137.0" x2="263.5" y2="177.0" stroke="#64748b" stroke-width="10" stroke-linecap="round" opacity="0.85"/><line x1="263.5" y1="177.0" x2="281.5" y2="178.5" stroke="#64748b" stroke-width="8" stroke-linecap="round" opacity="0.85"/><line x1="265.0" y1="47.0" x2="267.8" y2="78.9" stroke="#64748b" stroke-width="9" stroke-linecap="round" opacity="0.85"/><line x1="267.8" y1="78.9" x2="268.8" y2="108.9" stroke="#64748b" stroke-width="8" stroke-linecap="round" opacity="0.85"/><line x1="265.0" y1="95.0" x2="263.5" y2="137.0" stroke="#cbd5e1" stroke-width="12" stroke-linecap="round" opacity="1.0"/><line x1="263.5" y1="137.0" x2="263.5" y2="177.0" stroke="#cbd5e1" stroke-width="11" stroke-linecap="round" opacity="1.0"/><line x1="263.5" y1="177.0" x2="281.5" y2="178.5" stroke="#cbd5e1" stroke-width="8" stroke-linecap="round" opacity="1.0"/><line x1="265.0" y1="95.0" x2="265.0" y2="35.0" stroke="#cbd5e1" stroke-width="15" stroke-linecap="round" opacity="1.0"/><circle cx="265.0" cy="16.0" r="12" fill="#e2e8f0" opacity="1.0"/><line x1="265.0" y1="47.0" x2="267.8" y2="78.9" stroke="#f97316" stroke-width="10" stroke-linecap="round" opacity="1.0"/><line x1="267.8" y1="78.9" x2="268.8" y2="108.9" stroke="#f97316" stroke-width="9" stroke-linecap="round" opacity="1.0"/><line x1="279.8" y1="108.9" x2="257.8" y2="108.9" stroke="#f8fafc" stroke-width="5" stroke-linecap="round" opacity="1.0"/><rect x="274.8" y="101.9" width="10" height="14" rx="3" fill="#f8fafc"/><rect x="252.8" y="101.9" width="10" height="14" rx="3" fill="#f8fafc"/><path d="M125.8,43.3 Q197.3,58.1 268.8,108.9" fill="none" stroke="#fb923c" stroke-width="3" marker-end="url(#ah)" opacity="0.95"/><text x="95" y="196" fill="#94a3b8" font-family="Arial" font-size="12" text-anchor="middle">Ombros</text><text x="265" y="196" fill="#94a3b8" font-family="Arial" font-size="12" text-anchor="middle">Acima da cabeça</text></svg>