<?xml version="1.0" encoding="UTF-8"?><svg xmlns="http://www.w3.org/2000/svg" width="380" height="212" viewBox="0 0 380 212" preserveAspectRatio="xMidYMid meet" role="img" aria-label="elevacao-pelvica-halter"><title>elevacao-pelvica-halter</title><defs><marker id="ah" viewBox="0 0 10 10" refX="7" refY="5" markerWidth="4.2" markerHeight="4.2" orient="auto-start-reverse"><path d="M0,0 L10,5 L0,10 z" fill="#fb923c"/></marker></defs><line x1="8.0" y1="184.0" x2="372.0" y2="184.0" stroke="#334155" stroke-width="2.0" stroke-linecap="butt"/><line x1="190.0" y1="26.0" x2="190.0" y2="180.0" stroke="#1e293b" stroke-width="1.2" stroke-linecap="butt" stroke-dasharray="3 4"/><text x="10.0" y="14.0" fill="#64748b" font-family="-apple-system,Helvetica,Arial,sans-serif" font-size="9" font-weight="700" text-anchor="start" letter-spacing="0.8">VISTA LATERAL</text><rect x="133.3" y="144.0" width="32.0" height="8.0" rx="3.5" fill="#475569"/><rect x="139.3" y="152.0" width="6.0" height="32.0" rx="2.0" fill="#475569"/><rect x="153.3" y="152.0" width="6.0" height="32.0" rx="2.0" fill="#475569"/><line x1="139.3" y1="142.0" x2="113.3" y2="157.0" stroke="#64748b" stroke-width="8.7" stroke-linecap="round"/><line x1="113.3" y1="157.0" x2="86.7" y2="161.7" stroke="#64748b" stroke-width="7.4" stroke-linecap="round"/><line x1="94.1" y1="168.1" x2="57.2" y2="144.1" stroke="#64748b" stroke-width="10.1" stroke-linecap="round"/><line x1="57.2" y1="144.1" x2="43.5" y2="183.8" stroke="#64748b" stroke-width="8.7" stroke-linecap="round"/><line x1="49.5" y1="183.8" x2="26.5" y2="183.8" stroke="#64748b" stroke-width="6.4" stroke-linecap="round"/><polygon points="139.3,142.0 139.3,142.0 94.1,168.1 94.1,168.1" fill="#cbd5e1" stroke="#cbd5e1" stroke-width="14.0" stroke-linejoin="round"/><line x1="139.3" y1="142.0" x2="155.9" y2="132.4" stroke="#cbd5e1" stroke-width="8.0" stroke-linecap="round"/><circle cx="155.9" cy="132.4" r="11.5" fill="#e2e8f0"/><line x1="94.1" y1="168.1" x2="57.2" y2="144.1" stroke="#cbd5e1" stroke-width="11.0" stroke-linecap="round"/><line x1="57.2" y1="144.1" x2="43.5" y2="183.8" stroke="#cbd5e1" stroke-width="9.5" stroke-linecap="round"/><line x1="49.5" y1="183.8" x2="26.5" y2="183.8" stroke="#cbd5e1" stroke-width="7.0" stroke-linecap="round"/><line x1="139.3" y1="142.0" x2="113.3" y2="157.0" stroke="#cbd5e1" stroke-width="9.5" stroke-linecap="round"/><line x1="113.3" y1="157.0" x2="86.7" y2="161.7" stroke="#cbd5e1" stroke-width="8.0" stroke-linecap="round"/><circle cx="88.6" cy="158.6" r="8.5" fill="#94a3b8" stroke="#475569" stroke-width="2.0"/><circle cx="88.6" cy="158.6" r="2.7" fill="#e5e7eb"/><rect x="323.3" y="144.0" width="32.0" height="8.0" rx="3.5" fill="#475569"/><rect x="329.3" y="152.0" width="6.0" height="32.0" rx="2.0" fill="#475569"/><rect x="343.3" y="152.0" width="6.0" height="32.0" rx="2.0" fill="#475569"/><g opacity="0.3"><line x1="329.3" y1="142.0" x2="303.3" y2="157.0" stroke="#94a3b8" stroke-width="8.7" stroke-linecap="round"/><line x1="303.3" y1="157.0" x2="276.7" y2="161.7" stroke="#94a3b8" stroke-width="7.4" stroke-linecap="round"/><line x1="284.1" y1="168.1" x2="247.2" y2="144.1" stroke="#94a3b8" stroke-width="10.1" stroke-linecap="round"/><line x1="247.2" y1="144.1" x2="233.5" y2="183.8" stroke="#94a3b8" stroke-width="8.7" stroke-linecap="round"/><line x1="239.5" y1="183.8" x2="216.5" y2="183.8" stroke="#94a3b8" stroke-width="6.4" stroke-linecap="round"/><polygon points="329.3,142.0 329.3,142.0 284.1,168.1 284.1,168.1" fill="#94a3b8" stroke="#94a3b8" stroke-width="14.0" stroke-linejoin="round"/><line x1="329.3" y1="142.0" x2="345.9" y2="132.4" stroke="#94a3b8" stroke-width="8.0" stroke-linecap="round"/><circle cx="345.9" cy="132.4" r="11.5" fill="#94a3b8"/><line x1="284.1" y1="168.1" x2="247.2" y2="144.1" stroke="#94a3b8" stroke-width="11.0" stroke-linecap="round"/><line x1="247.2" y1="144.1" x2="233.5" y2="183.8" stroke="#94a3b8" stroke-width="9.5" stroke-linecap="round"/><line x1="239.5" y1="183.8" x2="216.5" y2="183.8" stroke="#94a3b8" stroke-width="7.0" stroke-linecap="round"/><line x1="329.3" y1="142.0" x2="303.3" y2="157.0" stroke="#94a3b8" stroke-width="9.5" stroke-linecap="round"/><line x1="303.3" y1="157.0" x2="276.7" y2="161.7" stroke="#94a3b8" stroke-width="8.0" stroke-linecap="round"/><circle cx="278.6" cy="158.6" r="8.5" fill="#94a3b8" stroke="#475569" stroke-width="2.0"/><circle cx="278.6" cy="158.6" r="2.7" fill="#e5e7eb"/></g><line x1="329.3" y1="142.0" x2="299.4" y2="139.4" stroke="#64748b" stroke-width="8.7" stroke-linecap="round"/><line x1="299.4" y1="139.4" x2="274.9" y2="128.0" stroke="#64748b" stroke-width="7.4" stroke-linecap="round"/><line x1="277.1" y1="142.0" x2="233.1" y2="142.0" stroke="#64748b" stroke-width="10.1" stroke-linecap="round"/><line x1="233.1" y1="142.0" x2="233.1" y2="184.0" stroke="#64748b" stroke-width="8.7" stroke-linecap="round"/><line x1="239.0" y1="184.0" x2="216.1" y2="184.0" stroke="#64748b" stroke-width="6.4" stroke-linecap="round"/><polygon points="329.3,142.0 329.3,142.0 277.1,142.0 277.1,142.0" fill="#cbd5e1" stroke="#cbd5e1" stroke-width="14.0" stroke-linejoin="round"/><line x1="329.3" y1="142.0" x2="348.4" y2="142.0" stroke="#cbd5e1" stroke-width="8.0" stroke-linecap="round"/><circle cx="348.4" cy="142.0" r="11.5" fill="#e2e8f0"/><line x1="277.1" y1="142.0" x2="233.1" y2="142.0" stroke="#cbd5e1" stroke-width="11.0" stroke-linecap="round"/><line x1="233.1" y1="142.0" x2="233.1" y2="184.0" stroke="#cbd5e1" stroke-width="9.5" stroke-linecap="round"/><line x1="239.0" y1="184.0" x2="216.1" y2="184.0" stroke="#cbd5e1" stroke-width="7.0" stroke-linecap="round"/><line x1="329.3" y1="142.0" x2="299.4" y2="139.4" stroke="#cbd5e1" stroke-width="9.5" stroke-linecap="round"/><line x1="299.4" y1="139.4" x2="274.9" y2="128.0" stroke="#cbd5e1" stroke-width="8.0" stroke-linecap="round"/><circle cx="277.1" cy="131.0" r="8.5" fill="#94a3b8" stroke="#475569" stroke-width="2.0"/><circle cx="277.1" cy="131.0" r="2.7" fill="#e5e7eb"/><path d="M282.5,165.2 L282.5,165.1 L281.7,163.5 L281.1,162.0 L280.4,160.4 L279.9,158.8 L279.3,157.2 L278.9,155.5 L278.5,153.9 L278.1,152.2 L277.8,150.5 L277.5,148.8 L277.3,147.1 L277.3,146.4" fill="none" stroke="#fb923c" stroke-width="3" stroke-linecap="round" stroke-linejoin="round" marker-end="url(#ah)"/><circle cx="51.5" cy="199.5" r="8.0" fill="#f97316"/><text x="51.5" y="203.1" fill="#0b1220" font-family="-apple-system,Helvetica,Arial,sans-serif" font-size="10.5" font-weight="700" text-anchor="middle">1</text><text x="64.5" y="203.0" fill="#cbd5e1" font-family="-apple-system,Helvetica,Arial,sans-serif" font-size="10.5" font-weight="400" text-anchor="start">Quadril embaixo</text><circle cx="219.7" cy="199.5" r="8.0" fill="#f97316"/><text x="219.7" y="203.1" fill="#0b1220" font-family="-apple-system,Helvetica,Arial,sans-serif" font-size="10.5" font-weight="700" text-anchor="middle">2</text><text x="232.7" y="203.0" fill="#cbd5e1" font-family="-apple-system,Helvetica,Arial,sans-serif" font-size="10.5" font-weight="400" text-anchor="start">Tronco paralelo ao chão</text><path d="M187.5,195.0 L192.5,199.5 L187.5,204.0" fill="none" stroke="#64748b" stroke-width="1.8" stroke-linecap="round" stroke-linejoin="round"/></svg>