<svg viewBox="0 0 360 200" xmlns="http://www.w3.org/2000/svg" role="img"><defs><marker id="ah" viewBox="0 0 10 10" refX="8" refY="5" markerWidth="6" markerHeight="6" orient="auto-start-reverse"><path d="M0,0 L10,5 L0,10 z" fill="#fb923c"/></marker></defs><line x1="10" y1="176" x2="350" y2="176" stroke="#334155" stroke-width="2"/><line x1="95.0" y1="150.0" x2="131.4" y2="171.0" stroke="#64748b" stroke-width="11" stroke-linecap="round" opacity="0.85"/><line x1="131.4" y1="171.0" x2="171.2" y2="174.5" stroke="#64748b" stroke-width="10" stroke-linecap="round" opacity="0.85"/><line x1="171.2" y1="174.5" x2="186.8" y2="165.5" stroke="#64748b" stroke-width="8" stroke-linecap="round" opacity="0.85"/><line x1="49.9" y1="166.4" x2="60.8" y2="196.5" stroke="#64748b" stroke-width="9" stroke-linecap="round" opacity="0.85"/><line x1="60.8" y1="196.5" x2="50.6" y2="224.7" stroke="#64748b" stroke-width="8" stroke-linecap="round" opacity="0.85"/><line x1="95.0" y1="150.0" x2="131.4" y2="171.0" stroke="#cbd5e1" stroke-width="12" stroke-linecap="round" opacity="1.0"/><line x1="131.4" y1="171.0" x2="171.2" y2="174.5" stroke="#cbd5e1" stroke-width="11" stroke-linecap="round" opacity="1.0"/><line x1="171.2" y1="174.5" x2="186.8" y2="165.5" stroke="#cbd5e1" stroke-width="8" stroke-linecap="round" opacity="1.0"/><line x1="95.0" y1="150.0" x2="38.6" y2="170.5" stroke="#f97316" stroke-width="15" stroke-linecap="round" opacity="1.0"/><circle cx="20.8" cy="177.0" r="12" fill="#e2e8f0" opacity="1.0"/><line x1="49.9" y1="166.4" x2="60.8" y2="196.5" stroke="#f97316" stroke-width="10" stroke-linecap="round" opacity="1.0"/><line x1="60.8" y1="196.5" x2="50.6" y2="224.7" stroke="#f97316" stroke-width="9" stroke-linecap="round" opacity="1.0"/><line x1="265.0" y1="150.0" x2="301.4" y2="171.0" stroke="#64748b" stroke-width="11" stroke-linecap="round" opacity="0.85"/><line x1="301.4" y1="171.0" x2="341.2" y2="174.5" stroke="#64748b" stroke-width="10" stroke-linecap="round" opacity="0.85"/><line x1="341.2" y1="174.5" x2="356.8" y2="165.5" stroke="#64748b" stroke-width="8" stroke-linecap="round" opacity="0.85"/><line x1="219.9" y1="166.4" x2="217.1" y2="198.3" stroke="#64748b" stroke-width="9" stroke-linecap="round" opacity="0.85"/><line x1="217.1" y1="198.3" x2="214.5" y2="228.2" stroke="#64748b" stroke-width="8" stroke-linecap="round" opacity="0.85"/><line x1="265.0" y1="150.0" x2="301.4" y2="171.0" stroke="#cbd5e1" stroke-width="12" stroke-linecap="round" opacity="1.0"/><line x1="301.4" y1="171.0" x2="341.2" y2="174.5" stroke="#cbd5e1" stroke-width="11" stroke-linecap="round" opacity="1.0"/><line x1="341.2" y1="174.5" x2="356.8" y2="165.5" stroke="#cbd5e1" stroke-width="8" stroke-linecap="round" opacity="1.0"/><line x1="265.0" y1="150.0" x2="208.6" y2="170.5" stroke="#f97316" stroke-width="15" stroke-linecap="round" opacity="1.0"/><circle cx="190.8" cy="177.0" r="12" fill="#e2e8f0" opacity="1.0"/><line x1="219.9" y1="166.4" x2="217.1" y2="198.3" stroke="#f97316" stroke-width="10" stroke-linecap="round" opacity="1.0"/><line x1="217.1" y1="198.3" x2="214.5" y2="228.2" stroke="#f97316" stroke-width="9" stroke-linecap="round" opacity="1.0"/><path d="M38.6,170.5 Q123.6,152.5 208.6,170.5" fill="none" stroke="#fb923c" stroke-width="3" marker-end="url(#ah)" opacity="0.95"/><text x="95" y="192" fill="#94a3b8" font-family="Arial" font-size="12" text-anchor="middle">Embaixo</text><text x="265" y="192" fill="#94a3b8" font-family="Arial" font-size="12" text-anchor="middle">Empurra</text></svg>