<svg viewBox="0 0 360 200" xmlns="http://www.w3.org/2000/svg" role="img"><defs><marker id="ah" viewBox="0 0 10 10" refX="8" refY="5" markerWidth="6" markerHeight="6" orient="auto-start-reverse"><path d="M0,0 L10,5 L0,10 z" fill="#fb923c"/></marker></defs><line x1="10" y1="176" x2="350" y2="176" stroke="#334155" stroke-width="2"/><line x1="95.0" y1="120.0" x2="131.4" y2="141.0" stroke="#64748b" stroke-width="11" stroke-linecap="round" opacity="0.85"/><line x1="131.4" y1="141.0" x2="93.8" y2="154.7" stroke="#64748b" stroke-width="10" stroke-linecap="round" opacity="0.85"/><line x1="93.8" y1="154.7" x2="84.8" y2="170.3" stroke="#64748b" stroke-width="8" stroke-linecap="round" opacity="0.85"/><line x1="96.7" y1="72.0" x2="107.6" y2="102.1" stroke="#64748b" stroke-width="9" stroke-linecap="round" opacity="0.85"/><line x1="107.6" y1="102.1" x2="111.8" y2="72.4" stroke="#64748b" stroke-width="8" stroke-linecap="round" opacity="0.85"/><line x1="95.0" y1="120.0" x2="131.4" y2="141.0" stroke="#cbd5e1" stroke-width="12" stroke-linecap="round" opacity="1.0"/><line x1="131.4" y1="141.0" x2="93.8" y2="154.7" stroke="#cbd5e1" stroke-width="11" stroke-linecap="round" opacity="1.0"/><line x1="93.8" y1="154.7" x2="84.8" y2="170.3" stroke="#cbd5e1" stroke-width="8" stroke-linecap="round" opacity="1.0"/><line x1="95.0" y1="120.0" x2="97.1" y2="60.0" stroke="#cbd5e1" stroke-width="15" stroke-linecap="round" opacity="1.0"/><circle cx="97.8" cy="41.0" r="12" fill="#e2e8f0" opacity="1.0"/><line x1="96.7" y1="72.0" x2="107.6" y2="102.1" stroke="#f97316" stroke-width="10" stroke-linecap="round" opacity="1.0"/><line x1="107.6" y1="102.1" x2="111.8" y2="72.4" stroke="#f97316" stroke-width="9" stroke-linecap="round" opacity="1.0"/><line x1="111.8" y1="44.4" x2="111.8" y2="100.4" stroke="#f8fafc" stroke-width="4" stroke-linecap="round" opacity="1.0"/><rect x="107.8" y="42.4" width="8" height="24" rx="2" fill="#94a3b8"/><rect x="107.8" y="98.4" width="8" height="24" rx="2" fill="#94a3b8"/><line x1="265.0" y1="120.0" x2="301.4" y2="141.0" stroke="#64748b" stroke-width="11" stroke-linecap="round" opacity="0.85"/><line x1="301.4" y1="141.0" x2="263.8" y2="154.7" stroke="#64748b" stroke-width="10" stroke-linecap="round" opacity="0.85"/><line x1="263.8" y1="154.7" x2="254.8" y2="170.3" stroke="#64748b" stroke-width="8" stroke-linecap="round" opacity="0.85"/><line x1="266.7" y1="72.0" x2="261.1" y2="103.5" stroke="#64748b" stroke-width="9" stroke-linecap="round" opacity="0.85"/><line x1="261.1" y1="103.5" x2="232.9" y2="113.8" stroke="#64748b" stroke-width="8" stroke-linecap="round" opacity="0.85"/><line x1="265.0" y1="120.0" x2="301.4" y2="141.0" stroke="#cbd5e1" stroke-width="12" stroke-linecap="round" opacity="1.0"/><line x1="301.4" y1="141.0" x2="263.8" y2="154.7" stroke="#cbd5e1" stroke-width="11" stroke-linecap="round" opacity="1.0"/><line x1="263.8" y1="154.7" x2="254.8" y2="170.3" stroke="#cbd5e1" stroke-width="8" stroke-linecap="round" opacity="1.0"/><line x1="265.0" y1="120.0" x2="267.1" y2="60.0" stroke="#cbd5e1" stroke-width="15" stroke-linecap="round" opacity="1.0"/><circle cx="267.8" cy="41.0" r="12" fill="#e2e8f0" opacity="1.0"/><line x1="266.7" y1="72.0" x2="261.1" y2="103.5" stroke="#f97316" stroke-width="10" stroke-linecap="round" opacity="1.0"/><line x1="261.1" y1="103.5" x2="232.9" y2="113.8" stroke="#f97316" stroke-width="9" stroke-linecap="round" opacity="1.0"/><line x1="232.9" y1="85.8" x2="232.9" y2="141.8" stroke="#f8fafc" stroke-width="4" stroke-linecap="round" opacity="1.0"/><rect x="228.9" y="83.8" width="8" height="24" rx="2" fill="#94a3b8"/><rect x="228.9" y="139.8" width="8" height="24" rx="2" fill="#94a3b8"/><path d="M111.8,72.4 Q172.4,75.1 232.9,113.8" fill="none" stroke="#fb923c" stroke-width="3" marker-end="url(#ah)" opacity="0.95"/><text x="95" y="192" fill="#94a3b8" font-family="Arial" font-size="12" text-anchor="middle">Braços acima</text><text x="265" y="192" fill="#94a3b8" font-family="Arial" font-size="12" text-anchor="middle">Puxa ao peito</text></svg>