<svg viewBox="0 0 380 212" xmlns="http://www.w3.org/2000/svg" role="img" aria-label="remada-trx"><title>remada-trx</title><defs><marker id="ah" viewBox="0 0 10 10" refX="8" refY="5" markerWidth="6" markerHeight="6" orient="auto-start-reverse"><path d="M0,0 L10,5 L0,10 z" fill="#fb923c"/></marker></defs><line x1="8.0" y1="178.0" x2="372.0" y2="178.0" stroke="#334155" stroke-width="2" stroke-linecap="butt"/><line x1="152.6" y1="18.0" x2="107.8" y2="22.9" stroke="#94a3b8" stroke-width="2.5" stroke-linecap="round"/><line x1="112.6" y1="18.0" x2="160.6" y2="18.0" stroke="#475569" stroke-width="4" stroke-linecap="round"/><line x1="336.6" y1="18.0" x2="280.4" y2="53.8" stroke="#94a3b8" stroke-width="2.5" stroke-linecap="round"/><line x1="296.6" y1="18.0" x2="344.6" y2="18.0" stroke="#475569" stroke-width="4" stroke-linecap="round"/><line x1="86.6" y1="96.5" x2="108.6" y2="134.6" stroke="#64748b" stroke-width="10.120000000000001" stroke-linecap="round"/><line x1="108.6" y1="134.6" x2="128.3" y2="171.7" stroke="#64748b" stroke-width="8.74" stroke-linecap="round"/><line x1="123.4" y1="175.0" x2="142.4" y2="162.2" stroke="#64748b" stroke-width="6.44" stroke-linecap="round"/><line x1="58.9" y1="52.2" x2="85.9" y2="39.1" stroke="#64748b" stroke-width="8.74" stroke-linecap="round"/><line x1="85.9" y1="39.1" x2="109.7" y2="26.4" stroke="#64748b" stroke-width="7.36" stroke-linecap="round"/><line x1="86.6" y1="96.5" x2="55.9" y2="47.3" stroke="#cbd5e1" stroke-width="15.0" stroke-linecap="round"/><line x1="55.9" y1="47.3" x2="48.8" y2="36.0" stroke="#cbd5e1" stroke-width="8.0" stroke-linecap="round"/><circle cx="48.8" cy="36.0" r="11.5" fill="#e2e8f0"/><line x1="86.6" y1="96.5" x2="111.2" y2="133.0" stroke="#cbd5e1" stroke-width="11.0" stroke-linecap="round"/><line x1="111.2" y1="133.0" x2="133.5" y2="168.6" stroke="#cbd5e1" stroke-width="9.5" stroke-linecap="round"/><line x1="128.6" y1="172.1" x2="147.2" y2="158.6" stroke="#cbd5e1" stroke-width="7.0" stroke-linecap="round"/><line x1="58.9" y1="52.2" x2="84.9" y2="37.2" stroke="#cbd5e1" stroke-width="9.5" stroke-linecap="round"/><line x1="84.9" y1="37.2" x2="107.8" y2="22.9" stroke="#cbd5e1" stroke-width="8.0" stroke-linecap="round"/><line x1="270.6" y1="96.5" x2="292.6" y2="134.6" stroke="#64748b" stroke-width="10.120000000000001" stroke-linecap="round"/><line x1="292.6" y1="134.6" x2="312.3" y2="171.7" stroke="#64748b" stroke-width="8.74" stroke-linecap="round"/><line x1="307.4" y1="175.0" x2="326.4" y2="162.2" stroke="#64748b" stroke-width="6.44" stroke-linecap="round"/><line x1="242.9" y1="52.2" x2="261.4" y2="75.9" stroke="#64748b" stroke-width="8.74" stroke-linecap="round"/><line x1="261.4" y1="75.9" x2="280.2" y2="56.4" stroke="#64748b" stroke-width="7.36" stroke-linecap="round"/><line x1="270.6" y1="96.5" x2="239.9" y2="47.3" stroke="#cbd5e1" stroke-width="15.0" stroke-linecap="round"/><line x1="239.9" y1="47.3" x2="232.8" y2="36.0" stroke="#cbd5e1" stroke-width="8.0" stroke-linecap="round"/><circle cx="232.8" cy="36.0" r="11.5" fill="#e2e8f0"/><line x1="270.6" y1="96.5" x2="295.2" y2="133.0" stroke="#cbd5e1" stroke-width="11.0" stroke-linecap="round"/><line x1="295.2" y1="133.0" x2="317.5" y2="168.6" stroke="#cbd5e1" stroke-width="9.5" stroke-linecap="round"/><line x1="312.6" y1="172.1" x2="331.2" y2="158.6" stroke="#cbd5e1" stroke-width="7.0" stroke-linecap="round"/><line x1="242.9" y1="52.2" x2="263.0" y2="74.5" stroke="#cbd5e1" stroke-width="9.5" stroke-linecap="round"/><line x1="263.0" y1="74.5" x2="280.4" y2="53.8" stroke="#cbd5e1" stroke-width="8.0" stroke-linecap="round"/><path d="M74.9,52.2 Q150.9,26.2 226.9,52.2" fill="none" stroke="#fb923c" stroke-width="3" marker-end="url(#ah)" opacity="0.95"/><text x="98.0" y="204.0" fill="#94a3b8" font-family="-apple-system,Helvetica,Arial,sans-serif" font-size="11" font-weight="400" text-anchor="middle">Braços estendidos</text><text x="282.0" y="204.0" fill="#94a3b8" font-family="-apple-system,Helvetica,Arial,sans-serif" font-size="11" font-weight="400" text-anchor="middle">Peito perto das alças</text></svg>