<?xml version="1.0" encoding="UTF-8"?><svg xmlns="http://www.w3.org/2000/svg" width="380" height="212" viewBox="0 0 380 212" preserveAspectRatio="xMidYMid meet" role="img" aria-label="supino-reto-barra"><title>supino-reto-barra</title><defs><marker id="ah" viewBox="0 0 10 10" refX="7" refY="5" markerWidth="4.2" markerHeight="4.2" orient="auto-start-reverse"><path d="M0,0 L10,5 L0,10 z" fill="#fb923c"/></marker></defs><line x1="8.0" y1="184.0" x2="372.0" y2="184.0" stroke="#334155" stroke-width="2.0" stroke-linecap="butt"/><line x1="190.0" y1="26.0" x2="190.0" y2="180.0" stroke="#1e293b" stroke-width="1.2" stroke-linecap="butt" stroke-dasharray="3 4"/><text x="10.0" y="14.0" fill="#64748b" font-family="-apple-system,Helvetica,Arial,sans-serif" font-size="9" font-weight="700" text-anchor="start" letter-spacing="0.8">VISTA LATERAL</text><rect x="74.8" y="145.0" width="89.3" height="8.0" rx="3.5" fill="#475569"/><rect x="80.8" y="153.0" width="6.0" height="31.0" rx="2.0" fill="#475569"/><rect x="152.1" y="153.0" width="6.0" height="31.0" rx="2.0" fill="#475569"/><line x1="136.2" y1="151.2" x2="136.2" y2="124.2" stroke="#64748b" stroke-width="7.4" stroke-linecap="round"/><line x1="141.0" y1="138.0" x2="136.2" y2="151.2" stroke="#64748b" stroke-width="8.7" stroke-linecap="round"/><line x1="88.8" y1="138.0" x2="45.0" y2="142.2" stroke="#64748b" stroke-width="10.1" stroke-linecap="round"/><line x1="45.0" y1="142.2" x2="41.4" y2="184.1" stroke="#64748b" stroke-width="8.7" stroke-linecap="round"/><line x1="47.3" y1="184.1" x2="24.4" y2="184.1" stroke="#64748b" stroke-width="6.4" stroke-linecap="round"/><polygon points="141.0,138.0 141.0,138.0 88.8,138.0 88.8,138.0" fill="#cbd5e1" stroke="#cbd5e1" stroke-width="14.0" stroke-linejoin="round"/><line x1="141.0" y1="138.0" x2="160.1" y2="138.0" stroke="#cbd5e1" stroke-width="8.0" stroke-linecap="round"/><circle cx="160.1" cy="138.0" r="11.5" fill="#e2e8f0"/><line x1="88.8" y1="138.0" x2="45.0" y2="142.2" stroke="#cbd5e1" stroke-width="11.0" stroke-linecap="round"/><line x1="45.0" y1="142.2" x2="41.4" y2="184.1" stroke="#cbd5e1" stroke-width="9.5" stroke-linecap="round"/><line x1="47.3" y1="184.1" x2="24.4" y2="184.1" stroke="#cbd5e1" stroke-width="7.0" stroke-linecap="round"/><line x1="141.0" y1="138.0" x2="136.2" y2="151.2" stroke="#cbd5e1" stroke-width="9.5" stroke-linecap="round"/><line x1="136.2" y1="151.2" x2="136.2" y2="124.2" stroke="#cbd5e1" stroke-width="8.0" stroke-linecap="round"/><circle cx="136.2" cy="124.2" r="14.0" fill="#94a3b8" stroke="#475569" stroke-width="2.0"/><circle cx="136.2" cy="124.2" r="4.5" fill="#e5e7eb"/><rect x="264.8" y="145.0" width="89.3" height="8.0" rx="3.5" fill="#475569"/><rect x="270.8" y="153.0" width="6.0" height="31.0" rx="2.0" fill="#475569"/><rect x="342.1" y="153.0" width="6.0" height="31.0" rx="2.0" fill="#475569"/><g opacity="0.3"><line x1="326.2" y1="151.2" x2="326.2" y2="124.2" stroke="#94a3b8" stroke-width="7.4" stroke-linecap="round"/><line x1="331.0" y1="138.0" x2="326.2" y2="151.2" stroke="#94a3b8" stroke-width="8.7" stroke-linecap="round"/><line x1="278.8" y1="138.0" x2="235.0" y2="142.2" stroke="#94a3b8" stroke-width="10.1" stroke-linecap="round"/><line x1="235.0" y1="142.2" x2="231.4" y2="184.1" stroke="#94a3b8" stroke-width="8.7" stroke-linecap="round"/><line x1="237.3" y1="184.1" x2="214.4" y2="184.1" stroke="#94a3b8" stroke-width="6.4" stroke-linecap="round"/><polygon points="331.0,138.0 331.0,138.0 278.8,138.0 278.8,138.0" fill="#94a3b8" stroke="#94a3b8" stroke-width="14.0" stroke-linejoin="round"/><line x1="331.0" y1="138.0" x2="350.1" y2="138.0" stroke="#94a3b8" stroke-width="8.0" stroke-linecap="round"/><circle cx="350.1" cy="138.0" r="11.5" fill="#94a3b8"/><line x1="278.8" y1="138.0" x2="235.0" y2="142.2" stroke="#94a3b8" stroke-width="11.0" stroke-linecap="round"/><line x1="235.0" y1="142.2" x2="231.4" y2="184.1" stroke="#94a3b8" stroke-width="9.5" stroke-linecap="round"/><line x1="237.3" y1="184.1" x2="214.4" y2="184.1" stroke="#94a3b8" stroke-width="7.0" stroke-linecap="round"/><line x1="331.0" y1="138.0" x2="326.2" y2="151.2" stroke="#94a3b8" stroke-width="9.5" stroke-linecap="round"/><line x1="326.2" y1="151.2" x2="326.2" y2="124.2" stroke="#94a3b8" stroke-width="8.0" stroke-linecap="round"/><circle cx="326.2" cy="124.2" r="14.0" fill="#94a3b8" stroke="#475569" stroke-width="2.0"/><circle cx="326.2" cy="124.2" r="4.5" fill="#e5e7eb"/></g><line x1="335.1" y1="109.2" x2="336.0" y2="82.3" stroke="#64748b" stroke-width="7.4" stroke-linecap="round"/><line x1="331.0" y1="138.0" x2="335.1" y2="109.2" stroke="#64748b" stroke-width="8.7" stroke-linecap="round"/><line x1="278.8" y1="138.0" x2="235.0" y2="142.2" stroke="#64748b" stroke-width="10.1" stroke-linecap="round"/><line x1="235.0" y1="142.2" x2="231.4" y2="184.1" stroke="#64748b" stroke-width="8.7" stroke-linecap="round"/><line x1="237.3" y1="184.1" x2="214.4" y2="184.1" stroke="#64748b" stroke-width="6.4" stroke-linecap="round"/><polygon points="331.0,138.0 331.0,138.0 278.8,138.0 278.8,138.0" fill="#cbd5e1" stroke="#cbd5e1" stroke-width="14.0" stroke-linejoin="round"/><line x1="331.0" y1="138.0" x2="350.1" y2="138.0" stroke="#cbd5e1" stroke-width="8.0" stroke-linecap="round"/><circle cx="350.1" cy="138.0" r="11.5" fill="#e2e8f0"/><line x1="278.8" y1="138.0" x2="235.0" y2="142.2" stroke="#cbd5e1" stroke-width="11.0" stroke-linecap="round"/><line x1="235.0" y1="142.2" x2="231.4" y2="184.1" stroke="#cbd5e1" stroke-width="9.5" stroke-linecap="round"/><line x1="237.3" y1="184.1" x2="214.4" y2="184.1" stroke="#cbd5e1" stroke-width="7.0" stroke-linecap="round"/><line x1="331.0" y1="138.0" x2="335.1" y2="109.2" stroke="#cbd5e1" stroke-width="9.5" stroke-linecap="round"/><line x1="335.1" y1="109.2" x2="336.0" y2="82.3" stroke="#cbd5e1" stroke-width="8.0" stroke-linecap="round"/><circle cx="336.0" cy="82.3" r="14.0" fill="#94a3b8" stroke="#475569" stroke-width="2.0"/><circle cx="336.0" cy="82.3" r="4.5" fill="#e5e7eb"/><path d="M319.3,123.3 L317.1,122.2 L314.2,120.1 L311.8,117.2 L310.0,113.6 L308.8,109.6 L308.5,105.3 L309.2,100.8 L310.8,96.4 L313.3,92.3 L316.6,88.7 L320.8,85.7 L325.5,83.6 L327.1,83.2" fill="none" stroke="#fb923c" stroke-width="3" stroke-linecap="round" stroke-linejoin="round" marker-end="url(#ah)"/><circle cx="32.4" cy="199.5" r="8.0" fill="#f97316"/><text x="32.4" y="203.1" fill="#0b1220" font-family="-apple-system,Helvetica,Arial,sans-serif" font-size="10.5" font-weight="700" text-anchor="middle">1</text><text x="45.4" y="203.0" fill="#cbd5e1" font-family="-apple-system,Helvetica,Arial,sans-serif" font-size="10.5" font-weight="400" text-anchor="start">Barra no meio do peito</text><circle cx="236.1" cy="199.5" r="8.0" fill="#f97316"/><text x="236.1" y="203.1" fill="#0b1220" font-family="-apple-system,Helvetica,Arial,sans-serif" font-size="10.5" font-weight="700" text-anchor="middle">2</text><text x="249.1" y="203.0" fill="#cbd5e1" font-family="-apple-system,Helvetica,Arial,sans-serif" font-size="10.5" font-weight="400" text-anchor="start">Braços estendidos</text><path d="M187.5,195.0 L192.5,199.5 L187.5,204.0" fill="none" stroke="#64748b" stroke-width="1.8" stroke-linecap="round" stroke-linejoin="round"/></svg>