<?xml version="1.0" encoding="UTF-8"?><svg xmlns="http://www.w3.org/2000/svg" width="380" height="212" viewBox="0 0 380 212" preserveAspectRatio="xMidYMid meet" role="img" aria-label="terra-romeno-halteres"><title>terra-romeno-halteres</title><defs><marker id="ah" viewBox="0 0 10 10" refX="7" refY="5" markerWidth="4.2" markerHeight="4.2" orient="auto-start-reverse"><path d="M0,0 L10,5 L0,10 z" fill="#fb923c"/></marker></defs><line x1="8.0" y1="184.0" x2="372.0" y2="184.0" stroke="#334155" stroke-width="2.0" stroke-linecap="butt"/><line x1="190.0" y1="26.0" x2="190.0" y2="180.0" stroke="#1e293b" stroke-width="1.2" stroke-linecap="butt" stroke-dasharray="3 4"/><text x="10.0" y="14.0" fill="#64748b" font-family="-apple-system,Helvetica,Arial,sans-serif" font-size="9" font-weight="700" text-anchor="start" letter-spacing="0.8">VISTA LATERAL</text><line x1="85.8" y1="79.8" x2="86.7" y2="105.5" stroke="#64748b" stroke-width="7.0" stroke-linecap="round"/><line x1="84.8" y1="51.3" x2="85.8" y2="79.8" stroke="#64748b" stroke-width="8.4" stroke-linecap="round"/><line x1="82.1" y1="101.2" x2="80.7" y2="143.3" stroke="#64748b" stroke-width="9.7" stroke-linecap="round"/><line x1="80.7" y1="143.3" x2="77.9" y2="183.4" stroke="#64748b" stroke-width="8.4" stroke-linecap="round"/><line x1="72.2" y1="183.2" x2="94.1" y2="184.0" stroke="#64748b" stroke-width="6.2" stroke-linecap="round"/><polygon points="84.8,51.3 84.8,51.3 82.1,101.2 82.1,101.2" fill="#cbd5e1" stroke="#cbd5e1" stroke-width="13.4" stroke-linejoin="round"/><line x1="84.8" y1="51.3" x2="85.7" y2="33.0" stroke="#cbd5e1" stroke-width="7.7" stroke-linecap="round"/><circle cx="85.7" cy="33.0" r="11.0" fill="#e2e8f0"/><line x1="82.1" y1="101.2" x2="84.3" y2="143.3" stroke="#cbd5e1" stroke-width="10.5" stroke-linecap="round"/><line x1="84.3" y1="143.3" x2="84.3" y2="183.5" stroke="#cbd5e1" stroke-width="9.1" stroke-linecap="round"/><line x1="78.7" y1="183.7" x2="100.6" y2="182.9" stroke="#cbd5e1" stroke-width="6.7" stroke-linecap="round"/><line x1="84.8" y1="51.3" x2="87.7" y2="79.7" stroke="#cbd5e1" stroke-width="9.1" stroke-linecap="round"/><line x1="87.7" y1="79.7" x2="90.4" y2="105.3" stroke="#cbd5e1" stroke-width="7.7" stroke-linecap="round"/><line x1="94.6" y1="105.3" x2="78.7" y2="105.8" stroke="#e5e7eb" stroke-width="4.0" stroke-linecap="round"/><rect x="91.1" y="100.0" width="7.0" height="10.6" rx="2.2" fill="#e5e7eb"/><rect x="75.2" y="100.5" width="7.0" height="10.6" rx="2.2" fill="#e5e7eb"/><line x1="99.0" y1="104.4" x2="81.9" y2="106.2" stroke="#e5e7eb" stroke-width="4.3" stroke-linecap="round"/><rect x="95.2" y="98.6" width="7.7" height="11.5" rx="2.4" fill="#e5e7eb"/><rect x="78.0" y="100.4" width="7.7" height="11.5" rx="2.4" fill="#e5e7eb"/><g opacity="0.3"><line x1="275.8" y1="79.8" x2="276.7" y2="105.5" stroke="#94a3b8" stroke-width="7.0" stroke-linecap="round"/><line x1="274.8" y1="51.3" x2="275.8" y2="79.8" stroke="#94a3b8" stroke-width="8.4" stroke-linecap="round"/><line x1="272.1" y1="101.2" x2="270.7" y2="143.3" stroke="#94a3b8" stroke-width="9.7" stroke-linecap="round"/><line x1="270.7" y1="143.3" x2="267.9" y2="183.4" stroke="#94a3b8" stroke-width="8.4" stroke-linecap="round"/><line x1="262.2" y1="183.2" x2="284.1" y2="184.0" stroke="#94a3b8" stroke-width="6.2" stroke-linecap="round"/><polygon points="274.8,51.3 274.8,51.3 272.1,101.2 272.1,101.2" fill="#94a3b8" stroke="#94a3b8" stroke-width="13.4" stroke-linejoin="round"/><line x1="274.8" y1="51.3" x2="275.7" y2="33.0" stroke="#94a3b8" stroke-width="7.7" stroke-linecap="round"/><circle cx="275.7" cy="33.0" r="11.0" fill="#94a3b8"/><line x1="272.1" y1="101.2" x2="274.3" y2="143.3" stroke="#94a3b8" stroke-width="10.5" stroke-linecap="round"/><line x1="274.3" y1="143.3" x2="274.3" y2="183.5" stroke="#94a3b8" stroke-width="9.1" stroke-linecap="round"/><line x1="268.7" y1="183.7" x2="290.6" y2="182.9" stroke="#94a3b8" stroke-width="6.7" stroke-linecap="round"/><line x1="274.8" y1="51.3" x2="277.7" y2="79.7" stroke="#94a3b8" stroke-width="9.1" stroke-linecap="round"/><line x1="277.7" y1="79.7" x2="280.4" y2="105.3" stroke="#94a3b8" stroke-width="7.7" stroke-linecap="round"/><line x1="284.6" y1="105.3" x2="268.7" y2="105.8" stroke="#e5e7eb" stroke-width="4.0" stroke-linecap="round"/><rect x="281.1" y="100.0" width="7.0" height="10.6" rx="2.2" fill="#e5e7eb"/><rect x="265.2" y="100.5" width="7.0" height="10.6" rx="2.2" fill="#e5e7eb"/><line x1="289.0" y1="104.4" x2="271.9" y2="106.2" stroke="#e5e7eb" stroke-width="4.3" stroke-linecap="round"/><rect x="285.2" y="98.6" width="7.7" height="11.5" rx="2.4" fill="#e5e7eb"/><rect x="268.0" y="100.4" width="7.7" height="11.5" rx="2.4" fill="#e5e7eb"/></g><line x1="293.6" y1="111.7" x2="290.9" y2="137.3" stroke="#64748b" stroke-width="7.0" stroke-linecap="round"/><line x1="296.6" y1="83.3" x2="293.6" y2="111.7" stroke="#64748b" stroke-width="8.4" stroke-linecap="round"/><line x1="251.7" y1="105.2" x2="268.8" y2="143.7" stroke="#64748b" stroke-width="9.7" stroke-linecap="round"/><line x1="268.8" y1="143.7" x2="271.6" y2="183.8" stroke="#64748b" stroke-width="8.4" stroke-linecap="round"/><line x1="265.9" y1="184.0" x2="287.9" y2="183.2" stroke="#64748b" stroke-width="6.2" stroke-linecap="round"/><polygon points="296.6,83.3 296.6,83.3 251.7,105.2 251.7,105.2" fill="#cbd5e1" stroke="#cbd5e1" stroke-width="13.4" stroke-linejoin="round"/><line x1="296.6" y1="83.3" x2="313.1" y2="75.3" stroke="#cbd5e1" stroke-width="7.7" stroke-linecap="round"/><circle cx="313.1" cy="75.3" r="11.0" fill="#e2e8f0"/><line x1="251.7" y1="105.2" x2="270.1" y2="143.1" stroke="#cbd5e1" stroke-width="10.5" stroke-linecap="round"/><line x1="270.1" y1="143.1" x2="274.3" y2="183.1" stroke="#cbd5e1" stroke-width="9.1" stroke-linecap="round"/><line x1="268.7" y1="183.5" x2="290.6" y2="181.9" stroke="#cbd5e1" stroke-width="6.7" stroke-linecap="round"/><line x1="296.6" y1="83.3" x2="294.6" y2="111.8" stroke="#cbd5e1" stroke-width="9.1" stroke-linecap="round"/><line x1="294.6" y1="111.8" x2="292.8" y2="137.4" stroke="#cbd5e1" stroke-width="7.7" stroke-linecap="round"/><line x1="298.8" y1="138.1" x2="283.0" y2="136.4" stroke="#e5e7eb" stroke-width="4.0" stroke-linecap="round"/><rect x="295.3" y="132.8" width="7.0" height="10.6" rx="2.2" fill="#e5e7eb"/><rect x="279.5" y="131.2" width="7.0" height="10.6" rx="2.2" fill="#e5e7eb"/><line x1="301.4" y1="138.0" x2="284.2" y2="136.8" stroke="#e5e7eb" stroke-width="4.3" stroke-linecap="round"/><rect x="297.6" y="132.3" width="7.7" height="11.5" rx="2.4" fill="#e5e7eb"/><rect x="280.4" y="131.1" width="7.7" height="11.5" rx="2.4" fill="#e5e7eb"/><path d="M270.8,101.0 L270.6,101.0 L269.1,101.1 L267.6,101.3 L266.1,101.5 L264.6,101.7 L263.1,102.0 L261.7,102.3 L260.2,102.6 L258.7,102.9 L257.3,103.2 L255.8,103.6 L254.4,104.0 L253.8,104.2" fill="none" stroke="#fb923c" stroke-width="3" stroke-linecap="round" stroke-linejoin="round" marker-end="url(#ah)"/><path d="M284.5,107.1 L284.6,107.1 L285.9,108.2 L287.1,109.6 L288.2,111.2 L289.3,113.0 L290.2,115.0 L291.1,117.2 L291.8,119.5 L292.3,122.1 L292.8,124.8 L293.0,127.8 L293.1,130.8 L293.1,131.5" fill="none" stroke="#fb923c" stroke-width="3" stroke-linecap="round" stroke-linejoin="round" marker-end="url(#ah)"/><circle cx="24.2" cy="199.5" r="8.0" fill="#f97316"/><text x="24.2" y="203.1" fill="#0b1220" font-family="-apple-system,Helvetica,Arial,sans-serif" font-size="10.5" font-weight="700" text-anchor="middle">1</text><text x="37.2" y="203.0" fill="#cbd5e1" font-family="-apple-system,Helvetica,Arial,sans-serif" font-size="10.5" font-weight="400" text-anchor="start">Em pé, halteres nas coxas</text><circle cx="207.0" cy="199.5" r="8.0" fill="#f97316"/><text x="207.0" y="203.1" fill="#0b1220" font-family="-apple-system,Helvetica,Arial,sans-serif" font-size="10.5" font-weight="700" text-anchor="middle">2</text><text x="220.0" y="203.0" fill="#cbd5e1" font-family="-apple-system,Helvetica,Arial,sans-serif" font-size="9.429280397022332" font-weight="400" text-anchor="start">Quadril para trás, costas retas</text><path d="M187.5,195.0 L192.5,199.5 L187.5,204.0" fill="none" stroke="#64748b" stroke-width="1.8" stroke-linecap="round" stroke-linejoin="round"/></svg>