<?xml version="1.0" encoding="UTF-8"?><svg xmlns="http://www.w3.org/2000/svg" width="380" height="212" viewBox="0 0 380 212" preserveAspectRatio="xMidYMid meet" role="img" aria-label="voador-maquina"><title>voador-maquina</title><defs><marker id="ah" viewBox="0 0 10 10" refX="8" refY="5" markerWidth="6" markerHeight="6" orient="auto-start-reverse"><path d="M0,0 L10,5 L0,10 z" fill="#fb923c"/></marker></defs><line x1="8.0" y1="178.0" x2="372.0" y2="178.0" stroke="#334155" stroke-width="2" stroke-linecap="butt"/><rect x="49.1" y="133.8" width="44.0" height="8.0" rx="3" fill="#475569"/><rect x="67.1" y="141.8" width="8.0" height="36.2" rx="2" fill="#475569"/><rect x="39.1" y="65.8" width="8.0" height="112.2" rx="3" fill="#475569"/><line x1="43.1" y1="73.8" x2="125.8" y2="67.0" stroke="#94a3b8" stroke-width="2" stroke-linecap="round"/><rect x="230.8" y="133.8" width="44.0" height="8.0" rx="3" fill="#475569"/><rect x="248.8" y="141.8" width="8.0" height="36.2" rx="2" fill="#475569"/><rect x="220.8" y="65.8" width="8.0" height="112.2" rx="3" fill="#475569"/><line x1="224.8" y1="73.8" x2="313.2" y2="76.9" stroke="#94a3b8" stroke-width="2" stroke-linecap="round"/><line x1="69.1" y1="125.8" x2="112.4" y2="133.4" stroke="#64748b" stroke-width="10.120000000000001" stroke-linecap="round"/><line x1="112.4" y1="133.4" x2="105.1" y2="174.8" stroke="#64748b" stroke-width="8.74" stroke-linecap="round"/><line x1="99.2" y1="175.0" x2="122.1" y2="174.2" stroke="#64748b" stroke-width="6.44" stroke-linecap="round"/><line x1="74.6" y1="73.9" x2="102.8" y2="84.1" stroke="#64748b" stroke-width="8.74" stroke-linecap="round"/><line x1="102.8" y1="84.1" x2="126.1" y2="70.6" stroke="#64748b" stroke-width="7.36" stroke-linecap="round"/><line x1="69.1" y1="125.8" x2="75.2" y2="68.1" stroke="#cbd5e1" stroke-width="15.0" stroke-linecap="round"/><line x1="75.2" y1="68.1" x2="76.6" y2="54.9" stroke="#cbd5e1" stroke-width="8.0" stroke-linecap="round"/><circle cx="76.6" cy="54.9" r="11.5" fill="#e2e8f0"/><line x1="69.1" y1="125.8" x2="112.9" y2="130.4" stroke="#cbd5e1" stroke-width="11.0" stroke-linecap="round"/><line x1="112.9" y1="130.4" x2="109.9" y2="172.3" stroke="#cbd5e1" stroke-width="9.5" stroke-linecap="round"/><line x1="104.0" y1="172.7" x2="126.9" y2="171.1" stroke="#cbd5e1" stroke-width="7.0" stroke-linecap="round"/><line x1="74.6" y1="73.9" x2="103.4" y2="82.1" stroke="#cbd5e1" stroke-width="9.5" stroke-linecap="round"/><line x1="103.4" y1="82.1" x2="125.8" y2="67.0" stroke="#cbd5e1" stroke-width="8.0" stroke-linecap="round"/><line x1="250.8" y1="125.8" x2="294.1" y2="133.4" stroke="#64748b" stroke-width="10.120000000000001" stroke-linecap="round"/><line x1="294.1" y1="133.4" x2="286.9" y2="174.8" stroke="#64748b" stroke-width="8.74" stroke-linecap="round"/><line x1="280.9" y1="175.0" x2="303.8" y2="174.2" stroke="#64748b" stroke-width="6.44" stroke-linecap="round"/><line x1="256.3" y1="73.9" x2="286.0" y2="78.1" stroke="#64748b" stroke-width="8.74" stroke-linecap="round"/><line x1="286.0" y1="78.1" x2="312.8" y2="80.9" stroke="#64748b" stroke-width="7.36" stroke-linecap="round"/><line x1="250.8" y1="125.8" x2="256.9" y2="68.1" stroke="#cbd5e1" stroke-width="15.0" stroke-linecap="round"/><line x1="256.9" y1="68.1" x2="258.3" y2="54.9" stroke="#cbd5e1" stroke-width="8.0" stroke-linecap="round"/><circle cx="258.3" cy="54.9" r="11.5" fill="#e2e8f0"/><line x1="250.8" y1="125.8" x2="294.6" y2="130.4" stroke="#cbd5e1" stroke-width="11.0" stroke-linecap="round"/><line x1="294.6" y1="130.4" x2="291.6" y2="172.3" stroke="#cbd5e1" stroke-width="9.5" stroke-linecap="round"/><line x1="285.7" y1="172.7" x2="308.6" y2="171.1" stroke="#cbd5e1" stroke-width="7.0" stroke-linecap="round"/><line x1="256.3" y1="73.9" x2="286.2" y2="76.0" stroke="#cbd5e1" stroke-width="9.5" stroke-linecap="round"/><line x1="286.2" y1="76.0" x2="313.2" y2="76.9" stroke="#cbd5e1" stroke-width="8.0" stroke-linecap="round"/><rect x="121.8" y="55.0" width="8.0" height="24.0" rx="3" fill="#e5e7eb"/><rect x="309.2" y="64.9" width="8.0" height="24.0" rx="3" fill="#e5e7eb"/><path d="M141.8,67.0 Q221.1,46.0 297.2,76.9" fill="none" stroke="#fb923c" stroke-width="3" marker-end="url(#ah)" opacity="0.95"/><text x="98.0" y="204.0" fill="#94a3b8" font-family="-apple-system,Helvetica,Arial,sans-serif" font-size="11" font-weight="400" text-anchor="middle">Braços abertos</text><text x="282.0" y="204.0" fill="#94a3b8" font-family="-apple-system,Helvetica,Arial,sans-serif" font-size="11" font-weight="400" text-anchor="middle">Braços à frente</text></svg>